<?xml version="1.0" standalone="no"?><!DOCTYPE svg PUBLIC "-//W3C//DTD SVG 1.1//EN" "http://www.w3.org/Graphics/SVG/1.1/DTD/svg11.dtd"><svg t="1677596554333" class="icon" viewBox="0 0 1024 1024" version="1.1" xmlns="http://www.w3.org/2000/svg" p-id="8279" xmlns:xlink="http://www.w3.org/1999/xlink" width="200" height="200"><path d="M512 0c282.779826 0 512 229.220174 512 512S794.779826 1024 512 1024 0 794.779826 0 512 229.220174 0 512 0z m-1.135304 225.925565c-138.017391 0-250.278957 114.287304-250.278957 255.777392 0 1.157565 0.089043 2.29287 0.222609 3.428173-0.222609 1.825391-0.222609 3.695304-0.222609 5.565218v71.858087c-1.914435 37.62087 28.360348 69.654261 67.82887 71.746782h16.962782c39.535304-2.070261 69.854609-34.170435 67.895652-71.835826v-71.791304c1.936696-37.62087-28.338087-69.676522-67.806608-71.791304h-16.985044a64.111304 64.111304 0 0 0-7.234782 0.400695c17.92-65.313391 71.457391-116.335304 140.020869-133.431652 104.759652-26.112 211.878957 33.613913 239.304348 133.431652a64.155826 64.155826 0 0 0-7.279304-0.400695h-16.962783c-39.513043 2.048-69.832348 34.148174-67.895652 71.791304v71.902609c-1.958957 37.64313 28.382609 69.765565 67.895652 71.813565h12.510609a186.479304 186.479304 0 0 1-88.909913 80.428522 36.59687 36.59687 0 0 0-36.173913-9.728l-49.196522 13.935304c-20.992 7.346087-32.589913 28.805565-26.713043 49.374609l0.512 2.159304c5.030957 19.389217 25.6 31.254261 45.990956 26.445913l49.174261-13.935304c15.805217-5.075478 26.86887-18.69913 28.048696-34.504348 57.032348-25.132522 100.886261-71.257043 121.36626-127.799652a73.104696 73.104696 0 0 0 28.204522-58.278957v-71.813565l-0.222609-5.565217c0.155826-1.113043 0.222609-2.270609 0.222609-3.405913 0-141.490087-112.261565-255.777391-250.278956-255.777392z" fill="#2196F3" p-id="8280"></path></svg>